<?xml version="1.0" encoding="UTF-8" standalone="no"?>
<!-- Created with Inkscape (http://www.inkscape.org/) -->

<svg
   xmlns:dc="http://purl.org/dc/elements/1.1/"
   xmlns:cc="http://creativecommons.org/ns#"
   xmlns:rdf="http://www.w3.org/1999/02/22-rdf-syntax-ns#"
   xmlns:svg="http://www.w3.org/2000/svg"
   xmlns="http://www.w3.org/2000/svg"
   xmlns:sodipodi="http://sodipodi.sourceforge.net/DTD/sodipodi-0.dtd"
   xmlns:inkscape="http://www.inkscape.org/namespaces/inkscape"
   width="128"
   height="128"
   viewBox="0 0 33.866666 33.866668"
   version="1.1"
   id="svg902"
   inkscape:version="0.92.4 5da689c313, 2019-01-14"
   sodipodi:docname="mitenaizo.svg">
  <defs
     id="defs896" />
  <sodipodi:namedview
     id="base"
     pagecolor="#ffffff"
     bordercolor="#666666"
     borderopacity="1.0"
     inkscape:pageopacity="0.0"
     inkscape:pageshadow="2"
     inkscape:zoom="5.6"
     inkscape:cx="-8.0227321"
     inkscape:cy="65.211152"
     inkscape:document-units="mm"
     inkscape:current-layer="layer1"
     showgrid="false"
     units="px"
     inkscape:window-width="3838"
     inkscape:window-height="2134"
     inkscape:window-x="1080"
     inkscape:window-y="24"
     inkscape:window-maximized="0" />
  <metadata
     id="metadata899">
    <rdf:RDF>
      <cc:Work
         rdf:about="">
        <dc:format>image/svg+xml</dc:format>
        <dc:type
           rdf:resource="http://purl.org/dc/dcmitype/StillImage" />
        <dc:title></dc:title>
      </cc:Work>
    </rdf:RDF>
  </metadata>
  <g
     inkscape:label="レイヤー 1"
     inkscape:groupmode="layer"
     id="layer1"
     transform="translate(0,-263.13332)">
    <rect
       style="fill:none;fill-opacity:1;stroke:none;stroke-width:1.57956731;stroke-linecap:round;stroke-linejoin:miter;stroke-miterlimit:4;stroke-dasharray:none;stroke-opacity:1"
       id="rect3276"
       width="33.866665"
       height="33.866665"
       x="7.1054274e-15"
       y="263.13333"
       ry="0" />
    <g
       id="g3274"
       transform="translate(0,-2.1888023)">
      <circle
         r="2.4440022"
         transform="rotate(26.700213)"
         cy="240.15004"
         cx="151.85396"
         id="path4546-7-3-9-3"
         style="fill:#3e3e3e;fill-opacity:1;stroke:none;stroke-width:0.88316363;stroke-linecap:round;stroke-linejoin:round;stroke-miterlimit:4;stroke-dasharray:none;stroke-opacity:1" />
      <circle
         r="2.4440022"
         transform="rotate(26.700213)"
         cy="240.28674"
         cx="138.16835"
         id="path4546-7-3-9"
         style="fill:#3e3e3e;fill-opacity:1;stroke:none;stroke-width:0.88316363;stroke-linecap:round;stroke-linejoin:round;stroke-miterlimit:4;stroke-dasharray:none;stroke-opacity:1" />
      <rect
         transform="rotate(26.700213)"
         ry="2.7173665"
         y="238.12172"
         x="143.28076"
         height="5.4347329"
         width="12.304112"
         id="rect3724-6"
         style="fill:none;fill-opacity:1;stroke:#3e3e3e;stroke-width:1.05833328;stroke-linecap:round;stroke-linejoin:round;stroke-miterlimit:4;stroke-dasharray:none;stroke-opacity:1" />
      <path
         inkscape:connector-curvature="0"
         id="path4566"
         d="m 9.477396,268.01393 11.669805,4.91449"
         style="fill:#494949;fill-opacity:1;stroke:#3e3e3e;stroke-width:1.05833328;stroke-linecap:round;stroke-linejoin:round;stroke-miterlimit:4;stroke-dasharray:none;stroke-opacity:1" />
      <path
         inkscape:connector-curvature="0"
         id="path4568"
         d="m 22.990464,273.79563 10.335176,6.41707 v 0"
         style="fill:#494949;fill-opacity:1;stroke:#3e3e3e;stroke-width:1.05833328;stroke-linecap:round;stroke-linejoin:round;stroke-miterlimit:4;stroke-dasharray:none;stroke-opacity:1" />
      <path
         inkscape:connector-curvature="0"
         id="path4570"
         d="m 17.922644,285.60747 -2.029749,1.52678"
         style="fill:none;stroke:#3e3e3e;stroke-width:1.05833328;stroke-linecap:round;stroke-linejoin:miter;stroke-miterlimit:4;stroke-dasharray:none;stroke-opacity:1" />
      <rect
         transform="rotate(26.700213)"
         ry="2.7173665"
         y="238.25841"
         x="129.59517"
         height="5.4347329"
         width="12.304112"
         id="rect3724-6-5"
         style="fill:none;fill-opacity:1;stroke:#3e3e3e;stroke-width:1.05833328;stroke-linecap:round;stroke-linejoin:round;stroke-miterlimit:4;stroke-dasharray:none;stroke-opacity:1" />
      <path
         sodipodi:nodetypes="cc"
         inkscape:connector-curvature="0"
         id="path4570-6"
         d="m 13.136021,284.03269 0.140796,2.03573"
         style="fill:none;stroke:#3e3e3e;stroke-width:1.05833328;stroke-linecap:round;stroke-linejoin:miter;stroke-miterlimit:4;stroke-dasharray:none;stroke-opacity:1" />
      <path
         sodipodi:nodetypes="czzczccc"
         inkscape:connector-curvature="0"
         id="path4620"
         d="m 13.004238,292.27999 c -0.355741,-0.85359 -1.090992,-2.09032 -1.976926,-2.25227 -0.885928,-0.16196 -1.424054,0.13774 -1.733314,0.88798 -0.30926,0.75024 -0.104245,1.50495 0.508094,1.94307 -0.54339,-0.31094 -1.283455,-0.49552 -1.9659,0.0544 -0.68244,0.54995 -0.657146,1.33852 -0.41295,2.15758 0.299188,0.83001 0.952332,1.3619 1.788105,1.425 0.512467,0.006 1.254794,0.005 1.731627,-0.17819"
         style="fill:none;stroke:#3e3e3e;stroke-width:1.05833328;stroke-linecap:round;stroke-linejoin:round;stroke-miterlimit:4;stroke-dasharray:none;stroke-opacity:1" />
      <path
         sodipodi:nodetypes="cszc"
         inkscape:connector-curvature="0"
         id="path4626"
         d="m 2.106734,281.96441 c -0.391939,0.70721 -0.332428,1.44771 0.45412,2.32058 0.786556,0.87286 2.887688,2.53979 3.728325,3.96105 0.840629,1.42126 0.615446,2.03435 0.615446,2.03435"
         style="fill:none;stroke:#3e3e3e;stroke-width:1.05833328;stroke-linecap:round;stroke-linejoin:miter;stroke-miterlimit:4;stroke-dasharray:none;stroke-opacity:1" />
      <path
         sodipodi:nodetypes="zscccscccczzzzcccz"
         inkscape:connector-curvature="0"
         id="path4632"
         d="m 0.304228,270.73432 c -0.224128,0.1755 -0.357898,0.32026 -0.283606,0.55172 l 1.084265,3.37813 1.048815,3.26765 c -0.258671,-0.0211 -0.529458,0.0112 -0.788483,0.0941 -0.871544,0.27974 -1.402702,1.05289 -1.186367,1.72689 0.21633,0.67399 1.098225,0.9936 1.969772,0.71386 0.749541,-0.39055 1.360451,-1.10277 1.175633,-1.75477 -0.455363,-1.43288 -0.922358,-2.87923 -1.383516,-4.31601 l -0.673152,-2.09725 c 1.82747,0.12552 3.235068,1.06728 3.414839,1.5953 0.179759,0.52803 0.229992,0.92092 -0.05738,1.51861 -0.287356,0.59769 -0.621269,0.80204 -0.466702,0.97014 0.154565,0.16809 0.689384,-0.19489 0.932401,-0.45013 0.243016,-0.25523 0.788572,-1.04084 0.397575,-2.13631 -0.390999,-1.09547 -0.91199,-1.55206 -1.430183,-1.87806 -0.518192,-0.32601 -1.745517,-1.01268 -2.738845,-1.29325 -0.399017,-0.10893 -0.79095,-0.0661 -1.01508,0.10939 z"
         style="fill:#3f89b6;fill-opacity:1;stroke:none;stroke-width:0.57240444;stroke-linecap:round;stroke-linejoin:round;stroke-miterlimit:4;stroke-dasharray:none;stroke-opacity:1" />
    </g>
  </g>
</svg>
